<?xml version="1.0" encoding="UTF-8"?>
<!-- Created with Inkscape (http://www.inkscape.org/) -->
<svg width="146.64mm" height="30.169mm" version="1.1" viewBox="0 0 146.64 30.169" xmlns="http://www.w3.org/2000/svg" xmlns:cc="http://creativecommons.org/ns#" xmlns:dc="http://purl.org/dc/elements/1.1/" xmlns:rdf="http://www.w3.org/1999/02/22-rdf-syntax-ns#">
 <metadata>
  <rdf:RDF>
   <cc:Work rdf:about="">
    <dc:format>image/svg+xml</dc:format>
    <dc:type rdf:resource="http://purl.org/dc/dcmitype/StillImage"/>
    <dc:title/>
   </cc:Work>
  </rdf:RDF>
 </metadata>
 <g transform="translate(-37.665 -20.356)">
  <g fill="#71c837">
   <path d="m85.915 41.598c0.48445 0.4847 0.63343 1.0062 0.63343 1.5653 0 0.55906-0.22357 1.1179-0.63343 1.528-0.41009 0.40986-0.96892 0.63343-1.5282 0.63343-0.55882 0-1.1179-0.22356-1.5277-0.63343l-6.0746-6.0746v4.5466c0 1.1927-1.0064 2.1614-2.1987 2.1614-1.1927 0-2.1403-0.96886-2.1616-2.1614l-0.23026-12.848c-0.0213-1.1923 0.96892-2.1614 2.1616-2.1614 1.1923 0 2.1351 0.97062 2.1987 2.1614l0.23027 4.3135 6.0746-6.0743c0.40985-0.40985 0.96892-0.59613 1.5277-0.59613 0.55928 0 1.0808 0.18628 1.5282 0.59613 0.40986 0.44715 0.63343 1.0062 0.63343 1.5653 0 0.55883-0.22357 1.1179-0.63343 1.528l-4.9938 4.9938z"/>
   <path d="m89.53 43.163v-13.043c0-1.1927 0.96892-2.1989 2.1614-2.1989 1.1925 0 2.1989 1.0062 2.1989 2.1989v13.043c0 1.1927-1.0064 2.1614-2.1989 2.1614-1.1925 0-2.1614-0.96867-2.1614-2.1614m2.1614-18.447c-1.1925 0-2.1614-0.96891-2.1614-2.1987 0-1.1925 0.96892-2.1614 2.1614-2.1614 1.1925 0 2.1989 0.96891 2.1989 2.1614 0 1.2298-1.0064 2.1987-2.1989 2.1987"/>
   <path d="m112.08 30.12v13.043c0 0.8943-0.55906 1.7145-1.4161 2.0124-0.26111 0.11191-0.52176 0.14898-0.78264 0.14898-0.63365 0-1.2298-0.29794-1.6399-0.7824l-7.006-8.4225v7.0435c0 1.1927-0.96915 2.1614-2.1989 2.1614-1.1925 0-2.1614-0.96868-2.1614-2.1614v-13.043c0-0.93161 0.55882-1.7516 1.4161-2.0497 0.26088-0.11167 0.52176-0.14897 0.78264-0.14897 0.63342 0 1.23 0.29794 1.6399 0.78264l7.0433 8.4223v-7.0062c0-1.2298 0.96891-2.1987 2.1616-2.1987 1.1925 0 2.1614 0.96891 2.1614 2.1987"/>
   <path d="m128.1 36.641c0-2.4225-1.9378-4.3603-4.3603-4.3603-2.385 0-4.3228 1.9378-4.3228 4.3603 0 2.3852 1.9378 4.323 4.3228 4.323 2.4225 0 4.3603-1.9378 4.3603-4.323m4.3603 0c0 4.7702-3.9129 8.6831-8.7207 8.6831-4.7702 0-8.6831-3.9129-8.6831-8.6831 0-4.8075 3.913-8.7207 8.6831-8.7207 4.8077 0 8.7207 3.9132 8.7207 8.7207"/>
   <path d="m150.46 30.12c0 0.33548-0.0744 0.63366-0.22359 0.93161l-6.1862 13.043c-0.33549 0.74557-1.1181 1.2298-1.9378 1.2298-0.85724 0-1.6026-0.48422-1.9754-1.2298l-6.1865-13.043c-0.14897-0.29794-0.22333-0.59612-0.22333-0.93161 0-0.81994 0.44715-1.6026 1.2298-1.9751 0.29818-0.14921 0.63367-0.22358 0.93162-0.22358 0.81992 0 1.6023 0.48422 1.9751 1.2671l4.2487 8.9067 4.2111-8.9067c0.37278-0.78287 1.1552-1.2671 1.9751-1.2671 0.29794 0 0.63343 0.07437 0.93161 0.22358 0.78264 0.37255 1.2298 1.1552 1.2298 1.9751"/>
   <path d="m162.43 34.07c-0.55884-1.1179-1.5653-1.8262-2.7951-1.8262-1.0435 0-2.0122 0.74534-2.6088 1.8262zm-2.944 11.218c-2.2733-0.11191-4.2484-1.0808-5.5899-2.758-1.2298-1.5653-1.8635-3.6148-1.8635-5.9256 0-4.8073 3.4285-8.6831 7.6023-8.6831 2.087 0 4.0251 0.85724 5.4412 2.4596 1.4161 1.5282 2.1614 3.6152 2.1614 5.851 0 1.1925-0.96892 2.1989-2.1614 2.1989h-8.4598c0.37278 1.1925 1.1927 2.4596 3.0935 2.534h0.22334c0.55906 0 1.6026 0 2.5342-0.67073 0.37254-0.22358 0.78263-0.33548 1.1927-0.33548 0.70803 0 1.4161 0.33548 1.8259 0.96914 0.26087 0.33525 0.37255 0.7451 0.37255 1.1552 0 0.70827-0.37255 1.4536-1.006 1.8635-1.7888 1.1925-3.6523 1.3788-4.6958 1.3788-0.29818 0-0.52176 0-0.67073-0.03706"/>
   <path d="m179.64 38.542c-0.26088-0.03731-0.67097-0.0746-1.2671-0.0746-0.48445 0-1.0062 0-1.9008 0.03731-1.7143 0.07437-2.6832 0.52176-2.944 0.85724-0.0373 0.07437-0.11169 0.14898-0.11169 0.29794 0 0.03755 0.0373 0.11191 0.0373 0.18628 0.11193 0.44739 0.26065 1.0811 1.8259 1.0811 0.67073 0 1.2298-0.11191 1.4161-0.14921 0.0749-0.03731 0.11191-0.03731 0.14922-0.03731 1.379-0.26088 2.236-1.0808 2.6088-1.7515zm4.6583 4.621c0 1.1554-0.96891 2.1616-2.1614 2.1616-0.85724 0-1.6026-0.48446-1.9378-1.1925-0.78265 0.40986-1.6399 0.70804-2.5715 0.89431-0.29818 0.03733-1.1925 0.26088-2.3479 0.26088-3.1676 0-5.3663-1.6026-6.0373-4.4349-0.1119-0.40985-0.14897-0.81994-0.14897-1.2298 0-1.0435 0.33524-2.0495 0.96891-2.8694 0.85701-1.1181 2.6461-2.4596 6.6707-2.6088 0.55928 0 1.081-0.03731 1.6399-0.03731 0.40987 0 0.89455 0 1.4161 0.07461-0.11168-0.59636-0.37257-1.2298-0.74511-1.4534-0.5593-0.29818-1.2298-0.44739-1.8634-0.44739-1.4163 0-2.8324 0.63366-3.6148 1.2673-0.41032 0.33549-0.89478 0.48422-1.379 0.48422-0.63366 0-1.2298-0.26064-1.6772-0.7824-0.33549-0.40985-0.48446-0.89455-0.48446-1.379 0-0.63343 0.26089-1.2671 0.78264-1.6769 1.4907-1.2298 3.3168-2.0124 5.3292-2.1989 0.33525-0.03707 0.63367-0.03707 0.96891-0.03707 1.4907 0 2.9067 0.33525 4.0622 0.96867 2.9813 1.6772 3.093 5.5901 3.093 6.0002v5.851z"/>
  </g>
  <path d="m38.467 36.632c-0.0467-4.4371-0.1074-4.7963 0-7.4263 0.21269-5.208 4.2526-5.4942 6.3987-4.4838 5.6049 2.6389 11.876 5.9332 16.814 8.5472 3.9429 2.0872 2.924 5.4477 0.28024 6.9125-5.4226 3.0044-10.252 5.535-15.942 8.5779-4.9778 2.6618-7.4131-0.32298-7.5751-3.2417-0.05734-2.2424 0.05094-6.3325 0.02404-8.8858z" fill="none" stroke="#fff" stroke-width="1.4834"/>
  <g fill-rule="evenodd">
   <path d="m38.765 33.167 8.1038-3.7818s0.2536 6.4751 2.7012 7.0233c2.7971 0.62639 6.215-5.9428 6.215-5.9428s-5.1345-2.7012-9.4565-4.8623c-7.0232-3.2415-7.5635 2.7013-7.5635 3.7818z" fill="#93f44e"/>
   <path d="m38.765 33.167v9.4565l5.1345-4.8622s1.9579 4.5721 4.0497 5.4025c3.3296 1.3218 7.0103-1.6035 10.589-1.8369 0.2442 0.24203-0.81991 0.89426 0.46567 0.22321 0.66106-0.34507 0.68909-0.36089 0.91161-0.47416 2.0443-1.1886 4.2413-2.5065 4.0209-4.6588-0.2507-2.4463-4.0973-3.5181-8.1513-5.9514 0 0-3.2578 6.2163-5.9427 5.6748-2.4597-0.49602-0.64998-6.0331-3.0038-6.9022-2.8076-1.0367-8.0735 3.9287-8.0735 3.9287z" fill="#71c837"/>
   <path d="m38.765 42.623v2.429c0.27229 4.054 3.5138 4.8622 5.7267 3.8379 3.7299-1.6769 14.535-7.3474 14.535-7.3474s0.11052-0.55503-0.54025-0.81253c-3.3519-1.3263-7.1659 3.71-10.537 2.4333-2.1732-0.82302-1.7338-5.4826-4.0497-5.6748-2.4122-0.20016-5.1345 5.1345-5.1345 5.1345z" fill="#338000"/>
  </g>
  <path d="m38.765 33.167s5.3233-4.8564 8.1038-3.7818c2.2711 0.8778 0.44133 6.2229 2.8211 6.7378 2.7093 0.58614 6.0952-5.6573 6.0952-5.6573" fill="none" stroke="#fff" stroke-linecap="square" stroke-width=".89931"/>
  <path d="m38.54 42.82s3.0237-5.5065 5.374-5.327c2.3445 0.17911 1.8751 5.024 4.1145 5.7411 3.1103 0.99601 6.7637-3.2489 9.9776-2.6687 1.0802 0.19501 1.0208 0.97691 1.0208 0.97691" fill="none" stroke="#fff" stroke-linecap="square" stroke-width=".89931"/>
 </g>
</svg>
